<svg xmlns="http://www.w3.org/2000/svg"
 xmlns:xlink="http://www.w3.org/1999/xlink"
 width="12px" height="20px"  viewBox="0 0 12 20">
<path fill-rule="evenodd"  fill="#666262"
 d="M7.000122,18.000198 C7.000122,18.000198 2.998291,18.006905 2.998291,18.006905 C2.998291,18.006905 3.0,11.000206 3.0,11.000206 C3.0,11.000206 1.0,11.000206 1.0,11.000206 C1.0,11.000206 1.0,7.0001526 1.0,7.0001526 C1.0,7.0001526 3.0,7.0001526 3.0,7.0001526 C3.0,7.0001526 3.071289,5.596596 3.071289,5.596596 C3.071289,3.378769 4.3187256,1.0002747 7.000122,1.0002747 C7.000122,1.0002747 10.0,1.0002747 10.0,1.0002747 C10.0,1.0002747 10.0,5.0000534 10.0,5.0000534 C10.0,5.0000534 8.0,5.0000534 8.0,5.0000534 C6.9559326,5.0000534 7.000122,5.2922363 7.000122,6.000038 C7.000122,6.000038 7.000122,7.0001526 7.000122,7.0001526 C7.000122,7.0001526 10.0,7.0001526 10.0,7.0001526 C10.0,7.0001526 9.0,11.000206 9.0,11.000206 C9.0,11.000206 7.000122,11.000206 7.000122,11.000206 C7.000122,11.000206 7.000122,18.000198 7.000122,18.000198 Z"/>
</svg>