<svg xmlns="http://www.w3.org/2000/svg"
 xmlns:xlink="http://www.w3.org/1999/xlink"
 width="66px" height="66px"  viewBox="0 0 66 66">
<path fill-rule="evenodd"  fill="#fefefe"
 d="M33.0,64.99835 C15.327881,64.99835 1.001709,50.67224 1.001709,32.99997 C1.001709,15.32782 15.327881,1.001709 33.0,1.001709 C50.67224,1.001709 64.99829,15.32782 64.99829,32.99997 C64.99829,50.67224 50.67224,64.99835 33.0,64.99835 ZM45.62097,29.339844 C45.62097,29.339844 32.74951,16.378998 32.74951,16.378998 C30.66211,14.277344 27.26648,14.265564 25.164917,16.352844 C23.063232,18.439972 23.051514,21.835693 25.13855,23.937347 C25.13855,23.937347 34.25708,33.11902 34.25708,33.11902 C34.25708,33.11902 25.13855,42.30072 25.13855,42.30072 C23.051514,44.402374 23.063232,47.798065 25.164917,49.885345 C26.210938,50.92404 27.577759,51.44287 28.94397,51.442993 C30.322754,51.443146 31.70105,50.914734 32.74951,49.85907 C32.74951,49.85907 45.62097,36.898193 45.62097,36.898193 C47.697998,34.806824 47.697998,31.431213 45.62097,29.339844 Z"/>
</svg>