<svg xmlns="http://www.w3.org/2000/svg"
 xmlns:xlink="http://www.w3.org/1999/xlink"
 width="66px" height="66px"  viewBox="0 0 66 66">
<path fill-rule="evenodd"  fill="#ffffff"
 d="M33.000046,1.001709 C50.672203,1.001709 64.9984,15.32782 64.9984,32.99997 C64.9984,50.67224 50.672203,64.99835 33.000046,64.99835 C15.327789,64.99835 1.0016937,50.67224 1.0016937,32.99997 C1.0016937,15.32782 15.327789,1.001709 33.000046,1.001709 ZM20.37912,36.660217 C20.37912,36.660217 33.25058,49.621094 33.25058,49.621094 C35.337883,51.722717 38.733536,51.734497 40.835144,49.647217 C42.93686,47.56009 42.948586,44.164368 40.861465,42.062744 C40.861465,42.062744 31.743011,32.881042 31.743011,32.881042 C31.743011,32.881042 40.861465,23.69934 40.861465,23.69934 C42.948586,21.597717 42.93686,18.201996 40.835144,16.114716 C39.789154,15.076019 38.422256,14.55722 37.05612,14.557068 C35.67729,14.556946 34.29904,15.085327 33.25058,16.140991 C33.25058,16.140991 20.37912,29.101868 20.37912,29.101868 C18.302109,31.193237 18.302109,34.568848 20.37912,36.660217 Z"/>
</svg>