<svg xmlns="http://www.w3.org/2000/svg" width="32" height="31.99" viewBox="0 0 32 31.99">
	<style type="text/css">
		.st0{fill:#000000;}
	</style>
	<path class="st0" d="M31.99,30.47C32.02,30.88 31.89,31.23 31.58,31.54C31.31,31.84 30.96,31.99 30.54,31.99L27.29,31.99C26.89,31.99 26.56,31.86 26.28,31.59C26,31.33 25.85,31.01 25.83,30.63C25.65,27.37 24.89,24.28 23.54,21.34C22.19,18.41 20.44,15.87 18.28,13.71C16.12,11.55 13.57,9.8 10.64,8.45C7.71,7.1 4.62,6.33 1.36,6.13C0.98,6.12 0.66,5.97 0.39,5.69C0.13,5.41 0,5.08 0,4.7L0,1.45C0,1.03 0.15,0.68 0.45,0.4C0.72,0.13 1.06,0 1.45,0L1.52,0C5.49,0.19 9.29,1.1 12.91,2.72C16.54,4.34 19.76,6.57 22.58,9.4C25.42,12.22 27.64,15.44 29.26,19.07C30.89,22.7 31.79,26.5 31.99,30.47M20.36,30.42C20.39,30.85 20.26,31.21 19.97,31.51C19.7,31.83 19.34,31.99 18.9,31.99L15.83,31.99C15.46,31.99 15.13,31.87 14.86,31.62C14.58,31.37 14.43,31.05 14.4,30.67C14.07,27.2 12.67,24.24 10.21,21.78C7.75,19.31 4.78,17.92 1.31,17.58C0.93,17.55 0.62,17.4 0.37,17.13C0.12,16.86 0,16.53 0,16.15L0,13.08C0,12.64 0.15,12.29 0.47,12.02C0.73,11.76 1.06,11.63 1.45,11.63L1.56,11.63C3.99,11.83 6.3,12.44 8.52,13.46C10.73,14.48 12.69,15.86 14.4,17.58C16.13,19.3 17.51,21.26 18.53,23.47C19.55,25.68 20.16,28 20.36,30.42M8.72,27.63C8.72,28.84 8.3,29.87 7.45,30.72C6.6,31.57 5.57,31.99 4.36,31.99C3.15,31.99 2.12,31.57 1.27,30.72C0.42,29.87 0,28.84 0,27.63C0,26.42 0.42,25.39 1.27,24.54C2.12,23.69 3.15,23.26 4.36,23.26C5.57,23.26 6.6,23.69 7.45,24.54C8.3,25.39 8.72,26.42 8.72,27.63"/>
</svg>