<svg xmlns="http://www.w3.org/2000/svg"
 xmlns:xlink="http://www.w3.org/1999/xlink"
 width="22px" height="23px"  viewBox="0 0 22 23">
<path fill-rule="evenodd"  fill="#ffffff"
 d="M14.442993,11.616318 C14.442993,11.616318 12.127197,14.068298 12.127197,14.068298 C12.127197,14.068298 18.677979,21.000275 18.677979,21.000275 C18.677979,21.000275 20.994019,18.548294 20.994019,18.548294 C20.994019,18.548294 14.442993,11.616318 14.442993,11.616318 ZM9.0546875,4.4660645 C11.687256,4.4660645 13.832031,6.7328796 13.832031,9.520966 C13.832031,12.309341 11.687256,14.574524 9.0546875,14.574524 C6.42041,14.574524 4.2773438,12.307556 4.2773438,9.520966 C4.2773438,6.7345276 M9.0546875,1.0 C4.6068115,1.0 1.001831,4.8147583 1.001831,9.520966 C1.001831,14.2276 4.6068115,18.042221 9.0546875,18.042221 C13.502563,18.042221 17.107544,14.2276 17.107544,9.520966 C17.105957,4.8147583 13.5008545,1.0 9.0546875,1.0 C9.0546875,1.0 9.0546875,1.0 9.0546875,1.0 Z"/>
</svg>