<svg xmlns="http://www.w3.org/2000/svg" width="32" height="26" viewBox="0 0 32 26">
	<style type="text/css">
		.st0{fill:#000000;}
	</style>
	<path class="st0" d="M32,3.07C30.82,3.6 29.55,3.95 28.22,4.11C29.58,3.29 30.62,2.01 31.11,0.48C29.84,1.23 28.44,1.77 26.94,2.07C25.75,0.79 24.04,0 22.15,0C18.52,0 15.59,2.93 15.59,6.56C15.59,7.07 15.64,7.58 15.76,8.06C10.3,7.78 5.46,5.17 2.22,1.2C1.66,2.17 1.33,3.29 1.33,4.5C1.33,6.78 2.49,8.78 4.25,9.96C3.18,9.93 2.17,9.63 1.28,9.14C1.28,9.17 1.28,9.2 1.28,9.22C1.28,12.4 3.54,15.06 6.55,15.66C6,15.81 5.42,15.89 4.82,15.89C4.39,15.89 3.98,15.85 3.58,15.77C4.42,18.38 6.84,20.28 9.71,20.33C7.47,22.09 4.64,23.14 1.56,23.14C1.03,23.14 0.51,23.11 0,23.05C2.9,24.91 6.35,26 10.06,26C22.13,26 28.74,16 28.74,7.32C28.74,7.04 28.73,6.75 28.72,6.47C30,5.55 31.12,4.39 32,3.07"/>
</svg>