<svg xmlns="http://www.w3.org/2000/svg"
 xmlns:xlink="http://www.w3.org/1999/xlink"
 width="88px" height="89px"  viewBox="0 0 88 89">
<path fill-rule="evenodd"  fill="#b9b7b7"
 d="M40.958008,1.9998779 C40.958008,1.9998779 48.041412,1.9998779 48.041412,1.9998779 C48.041412,1.9998779 48.041412,87.00006 48.041412,87.00006 C48.041412,87.00006 40.958008,87.00006 40.958008,87.00006 C40.958008,87.00006 40.958008,1.9998779 40.958008,1.9998779 ZM86.99979,40.95819 C86.99979,40.95819 86.99979,48.041504 86.99979,48.041504 C86.99979,48.041504 1.999939,48.041504 1.999939,48.041504 C1.999939,48.041504 1.999939,40.95819 1.999939,40.95819 C1.999939,40.95819 86.99979,40.95819 86.99979,40.95819 ZM11.943329,16.952515 C11.943329,16.952515 16.952118,11.9435425 16.952118,11.9435425 C16.952118,11.9435425 77.05609,72.04773 77.05609,72.04773 C77.05609,72.04773 72.047424,77.0564 72.047424,77.0564 C72.047424,77.0564 11.943329,16.952515 11.943329,16.952515 ZM72.047424,11.9435425 C72.047424,11.9435425 77.05609,16.952393 77.05609,16.952393 C77.05609,16.952393 16.952118,77.05621 16.952118,77.05621 C16.952118,77.05621 11.943329,72.04773 11.943329,72.04773 C11.943329,72.04773 72.047424,11.9435425 72.047424,11.9435425 ZM44.610596,12.514404 C62.33673,12.514404 76.70688,26.884155 76.70688,44.610474 C76.70688,62.337097 62.33673,76.70697 44.610596,76.70697 C26.884064,76.70697 12.514099,62.337097 12.514099,44.610474 C12.514099,26.884155 26.884064,12.514404 44.610596,12.514404 ZM44.555176,19.707031 C58.27835,19.707031 69.40344,30.831787 69.40344,44.555054 C69.40344,58.278442 58.27835,69.403564 44.555176,69.403564 C30.83191,69.403564 19.706818,58.278442 19.706818,44.555054 C19.706818,30.831787 30.83191,19.707031 44.555176,19.707031 ZM44.444458,26.831299 C54.233063,26.831299 62.168213,34.76654 62.168213,44.555176 C62.168213,54.343933 54.233063,62.27893 44.444458,62.27893 C34.655853,62.27893 26.72052,54.343933 26.72052,44.555176 C26.72052,34.76654 34.655853,26.831299 44.444458,26.831299 ZM44.444458,33.851868 C50.355804,33.851868 55.147827,38.643982 55.147827,44.555176 C55.147827,50.466675 50.355804,55.258667 44.444458,55.258667 C38.53311,55.258667 33.74109,50.466675 33.74109,44.555176 C33.74109,38.643982 38.53311,33.851868 44.444458,33.851868 Z"/>
</svg>