<svg xmlns="http://www.w3.org/2000/svg"
 xmlns:xlink="http://www.w3.org/1999/xlink"
 width="112px" height="115px"  viewBox="0 0 112 115">
<path fill-rule="evenodd"  fill="#b9b7b7"
 d="M63.425964,39.132874 C80.396484,39.132874 94.153625,52.83368 94.153625,69.7348 C94.153625,86.635254 80.396484,100.33618 63.425964,100.33618 C46.455505,100.33618 32.69812,86.635254 32.69812,69.7348 C32.69812,52.83368 46.455505,39.132874 63.425964,39.132874 ZM63.47058,45.950684 C76.69098,45.950684 87.40839,56.624084 87.40839,69.79053 C87.40839,82.95648 76.69098,93.630005 63.47058,93.630005 C50.25,93.630005 39.532593,82.95648 39.532593,69.79053 C39.532593,56.624084 50.25,45.950684 63.47058,45.950684 ZM63.470215,5.3303223 C74.81732,5.3303223 84.01599,14.491394 84.01599,25.791931 C84.01599,37.09253 74.81732,46.253418 63.470215,46.253418 C52.123108,46.253418 42.92456,37.09253 42.92456,25.791931 C42.92456,14.491394 52.123108,5.3303223 63.470215,5.3303223 ZM63.41101,12.028564 C70.95911,12.028564 77.078064,18.122864 77.078064,25.639893 C77.078064,33.157227 70.95911,39.251343 63.41101,39.251343 C55.862732,39.251343 49.743652,33.157227 49.743652,25.639893 C49.743652,18.122864 55.862732,12.028564 63.41101,12.028564 ZM22.000061,73.00012 C22.000061,73.00012 111.0,73.00012 111.0,73.00012 C111.0,73.00012 110.99097,113.98871 110.99097,113.98871 C110.99097,113.98871 22.432861,113.98871 22.432861,113.98871 C22.432861,113.98871 22.000061,73.00012 22.000061,73.00012 ZM43.026978,1.9870605 C56.16736,1.9870605 66.81952,12.595581 66.81952,25.681946 C66.81952,38.768555 56.16736,49.377075 43.026978,49.377075 C29.886536,49.377075 19.234375,38.768555 19.234375,25.681946 C19.234375,12.595581 29.886536,1.9870605 43.026978,1.9870605 ZM43.142456,35.83307 C61.967102,35.83307 77.22772,51.030945 77.22772,69.778625 C77.22772,88.52588 61.967102,103.723816 43.142456,103.723816 C24.317871,103.723816 9.057251,88.52588 9.057251,69.778625 C9.057251,51.030945 24.317871,35.83307 43.142456,35.83307 ZM42.97986,39.132874 C59.950195,39.132874 73.86633,52.80127 73.88776,69.70221 C73.90924,86.599 59.954285,100.33551 42.97986,100.33618 C26.0094,100.336914 12.252197,86.635254 12.252197,69.7348 C12.252197,52.83368 26.0094,39.132874 42.97986,39.132874 ZM43.024292,45.950684 C56.244995,45.950684 66.96216,56.624084 66.96216,69.79053 C66.96216,82.95648 56.244995,93.630005 43.024292,93.630005 C29.803894,93.630005 19.086365,82.95648 19.086365,69.79053 C19.086365,56.624084 29.803894,45.950684 43.024292,45.950684 ZM43.023987,5.2244263 C54.371277,5.2244263 63.569763,14.385193 63.569763,25.686035 C63.569763,36.98645 54.371277,46.14734 43.023987,46.14734 C31.677002,46.14734 22.478333,36.98645 22.478333,25.686035 C22.478333,14.385193 31.677002,5.2244263 43.023987,5.2244263 ZM42.964783,12.028564 C50.513123,12.028564 56.63214,18.122864 56.63214,25.639893 C56.63214,33.157227 50.513123,39.251343 42.964783,39.251343 C35.416443,39.251343 29.297485,33.157227 29.297485,25.639893 C29.297485,18.122864 35.416443,12.028564 42.964783,12.028564 ZM2.0,73.00012 C2.0,73.00012 91.0,73.00012 91.0,73.00012 C91.0,73.00012 90.5448,113.98871 90.5448,113.98871 C90.5448,113.98871 1.9866943,113.98871 1.9866943,113.98871 C1.9866943,113.98871 2.0,73.00012 2.0,73.00012 ZM59.084717,40.239746 C59.084717,40.239746 63.45215,35.890137 63.45215,35.890137 C63.45215,35.890137 63.45215,44.589294 63.45215,44.589294 C63.45215,44.589294 59.084717,40.239746 59.084717,40.239746 ZM16.0,67.00006 C16.0,67.00006 70.0,67.00006 70.0,67.00006 C70.0,67.00006 70.0,73.00012 70.0,73.00012 C70.0,73.00012 16.0,73.00012 16.0,73.00012 C16.0,73.00012 16.0,67.00006 16.0,67.00006 ZM77.0,67.00006 C77.0,67.00006 91.0,67.00006 91.0,67.00006 C91.0,67.00006 91.0,73.00012 91.0,73.00012 C91.0,73.00012 77.0,73.00012 77.0,73.00012 C77.0,73.00012 77.0,67.00006 77.0,67.00006 Z"/>
</svg>