<svg xmlns="http://www.w3.org/2000/svg"
 xmlns:xlink="http://www.w3.org/1999/xlink"
 width="18px" height="18px"  viewBox="0 0 18 18">
<path fill-rule="evenodd"  fill="#666262"
 d="M2.0000305,2.000183 C2.0000305,2.000183 15.9999695,2.000183 15.9999695,2.000183 C16.552338,2.000183 16.999985,2.447937 16.999985,3.000183 C16.999985,3.000183 16.999985,16.000183 16.999985,16.000183 C16.999985,16.55243 16.552338,17.0 15.9999695,17.0 C15.9999695,17.0 2.0000305,17.0 2.0000305,17.0 C1.4477539,17.0 1.0,16.55243 1.0,16.000183 C1.0,16.000183 1.0,3.000183 1.0,3.000183 C1.0,2.447937 1.4477539,2.000183 2.0000305,2.000183 ZM3.9999695,1.0001221 C3.9999695,1.0001221 5.0,1.0001221 5.0,1.0001221 C5.5522766,1.0001221 6.0000153,1.4476929 6.0000153,2.000183 C6.0000153,2.000183 6.0000153,3.000183 6.0000153,3.000183 C6.0000153,3.552246 5.5522766,4.000183 5.0,4.000183 C5.0,4.000183 3.9999695,4.000183 3.9999695,4.000183 C3.4476929,4.000183 2.9999542,3.552246 2.9999542,3.000183 C2.9999542,3.000183 2.9999542,2.000183 2.9999542,2.000183 C2.9999542,1.4476929 3.4476929,1.0001221 3.9999695,1.0001221 ZM12.999985,1.0001221 C12.999985,1.0001221 14.000015,1.0001221 14.000015,1.0001221 C14.552277,1.0001221 15.0000305,1.4476929 15.0000305,2.000183 C15.0000305,2.000183 15.0000305,3.000183 15.0000305,3.000183 C15.0000305,3.552246 14.552277,4.000183 14.000015,4.000183 C14.000015,4.000183 12.999985,4.000183 12.999985,4.000183 C12.447723,4.000183 11.9999695,3.552246 11.9999695,3.000183 C11.9999695,3.000183 11.9999695,2.000183 11.9999695,2.000183 C11.9999695,1.4476929 12.447723,1.0001221 12.999985,1.0001221 ZM4.4999847,1.0001221 C4.776169,1.0001221 5.0,1.2238159 5.0,1.5001221 C5.0,1.5001221 5.0,2.499939 5.0,2.499939 C5.0,2.7763062 4.776169,3.000183 4.4999847,3.000183 C4.223892,3.000183 3.9999695,2.7763062 3.9999695,2.499939 C3.9999695,2.499939 3.9999695,1.5001221 3.9999695,1.5001221 C3.9999695,1.2238159 4.223892,1.0001221 4.4999847,1.0001221 ZM13.5,1.0001221 C13.776184,1.0001221 14.000015,1.2238159 14.000015,1.5001221 C14.000015,1.5001221 14.000015,2.499939 14.000015,2.499939 C14.000015,2.7763062 13.776184,3.000183 13.5,3.000183 C13.223816,3.000183 12.999985,2.7763062 12.999985,2.499939 C12.999985,2.499939 12.999985,1.5001221 12.999985,1.5001221 C12.999985,1.2238159 13.223816,1.0001221 13.5,1.0001221 ZM2.0000305,5.000183 C2.0000305,5.000183 15.9999695,5.000183 15.9999695,5.000183 C15.9999695,5.000183 15.9999695,16.000183 15.9999695,16.000183 C15.9999695,16.000183 2.0000305,16.000183 2.0000305,16.000183 C2.0000305,16.000183 2.0000305,5.000183 2.0000305,5.000183 ZM11.9999695,7.000061 C13.104614,7.000061 14.000015,7.895508 14.000015,9.000244 C14.000015,9.000244 14.000015,12.000122 14.000015,12.000122 C14.000015,13.104675 13.104614,14.000122 11.9999695,14.000122 C10.895416,14.000122 10.000015,13.104675 10.000015,12.000122 C10.000015,12.000122 10.000015,9.000244 10.000015,9.000244 C10.000015,7.895508 10.895416,7.000061 11.9999695,7.000061 ZM11.9999695,8.000061 C12.552338,8.000061 12.999985,8.447815 12.999985,9.000244 C12.999985,9.000244 12.999985,12.000122 12.999985,12.000122 C12.999985,12.552368 12.552338,13.000122 11.9999695,13.000122 C11.447693,13.000122 11.0000305,12.552368 11.0000305,12.000122 C11.0000305,12.000122 11.0000305,9.000244 11.0000305,9.000244 C11.0000305,8.447815 11.447693,8.000061 11.9999695,8.000061 ZM6.0000153,7.000061 C7.1045685,7.000061 8.000061,7.895508 8.000061,9.000244 C8.000061,10.104797 7.1045685,11.000122 6.0000153,11.000122 C4.8954773,11.000122 3.9999695,10.104797 3.9999695,9.000244 C3.9999695,7.895508 4.8954773,7.000061 6.0000153,7.000061 ZM6.0000153,10.000061 C7.1045685,10.000061 8.000061,10.895569 8.000061,12.000122 C8.000061,13.104675 7.1045685,14.000122 6.0000153,14.000122 C4.8954773,14.000122 3.9999695,13.104675 3.9999695,12.000122 C3.9999695,10.895569 4.8954773,10.000061 6.0000153,10.000061 ZM6.0000153,11.000122 C6.552292,11.000122 7.000046,11.447876 7.000046,12.000122 C7.000046,12.552368 6.552292,13.000122 6.0000153,13.000122 C5.447754,13.000122 5.0,12.552368 5.0,12.000122 C5.0,11.447876 5.447754,11.000122 6.0000153,11.000122 ZM6.0000153,8.000061 C6.552292,8.000061 7.000046,8.447815 7.000046,9.000244 C7.000046,9.552551 6.552292,10.000061 6.0000153,10.000061 C5.447754,10.000061 5.0,9.552551 5.0,9.000244 C5.0,8.447815 5.447754,8.000061 6.0000153,8.000061 ZM3.9999695,8.000061 C3.9999695,8.000061 6.0000153,8.000061 6.0000153,8.000061 C6.552292,8.000061 7.000046,8.447815 7.000046,9.000244 C7.000046,9.552551 6.552292,10.000061 6.0000153,10.000061 C6.0000153,10.000061 3.9999695,10.000061 3.9999695,10.000061 C3.4476929,10.000061 2.9999542,9.552551 2.9999542,9.000244 C2.9999542,8.447815 3.4476929,8.000061 3.9999695,8.000061 ZM3.9999695,11.000122 C3.9999695,11.000122 6.0000153,11.000122 6.0000153,11.000122 C6.552292,11.000122 7.000046,11.447876 7.000046,12.000122 C7.000046,12.552368 6.552292,13.000122 6.0000153,13.000122 C6.0000153,13.000122 3.9999695,13.000122 3.9999695,13.000122 C3.4476929,13.000122 2.9999542,12.552368 2.9999542,12.000122 C2.9999542,11.447876 3.4476929,11.000122 3.9999695,11.000122 ZM3.9999695,7.000061 C3.9999695,7.000061 6.0000153,7.000061 6.0000153,7.000061 C6.0000153,7.000061 6.0000153,8.000061 6.0000153,8.000061 C6.0000153,8.000061 3.9999695,8.000061 3.9999695,8.000061 C3.9999695,8.000061 3.9999695,7.000061 3.9999695,7.000061 ZM3.9999695,13.000122 C3.9999695,13.000122 6.0000153,13.000122 6.0000153,13.000122 C6.0000153,13.000122 6.0000153,14.000122 6.0000153,14.000122 C6.0000153,14.000122 3.9999695,14.000122 3.9999695,14.000122 C3.9999695,14.000122 3.9999695,13.000122 3.9999695,13.000122 ZM3.9999695,10.000061 C3.9999695,10.000061 6.0000153,10.000061 6.0000153,10.000061 C6.0000153,10.000061 6.0000153,11.000122 6.0000153,11.000122 C6.0000153,11.000122 3.9999695,11.000122 3.9999695,11.000122 C3.9999695,11.000122 3.9999695,10.000061 3.9999695,10.000061 ZM3.9999695,10.000061 C3.9999695,10.000061 5.0,10.000061 5.0,10.000061 C5.0,10.000061 5.0,11.000122 5.0,11.000122 C5.0,11.000122 3.9999695,11.000122 3.9999695,11.000122 C3.9999695,11.000122 3.9999695,10.000061 3.9999695,10.000061 Z"/>
</svg>