<svg xmlns="http://www.w3.org/2000/svg"
 xmlns:xlink="http://www.w3.org/1999/xlink"
 width="16px" height="16px"  viewBox="0 0 16 16">
<path fill-rule="evenodd"  fill="#666262"
 d="M3.0,1.0001831 C3.0,1.0001831 13.0,1.0001831 13.0,1.0001831 C14.104553,1.0001831 15.0,1.8956909 15.0,3.000183 C15.0,3.000183 15.0,10.000122 15.0,10.000122 C15.0,11.104675 14.104553,12.000122 13.0,12.000122 C13.0,12.000122 3.0,12.000122 3.0,12.000122 C1.8954468,12.000122 1.000061,11.104675 1.000061,10.000122 C1.000061,10.000122 1.000061,3.000183 1.000061,3.000183 C1.000061,1.8956909 1.8954468,1.0001831 3.0,1.0001831 ZM7.5,12.000122 C7.5,12.000122 9.999939,14.968811 9.999939,14.968811 C9.999939,14.968811 9.999939,12.000122 9.999939,12.000122 C9.999939,12.000122 7.5,12.000122 7.5,12.000122 ZM5.000061,5.000061 C5.000061,5.000061 11.0,5.000061 11.0,5.000061 C11.0,5.000061 11.0,6.000061 11.0,6.000061 C11.0,6.000061 5.000061,6.000061 5.000061,6.000061 C5.000061,6.000061 5.000061,5.000061 5.000061,5.000061 ZM5.000061,7.000244 C5.000061,7.000244 11.0,7.000244 11.0,7.000244 C11.0,7.000244 11.0,8.000061 11.0,8.000061 C11.0,8.000061 5.000061,8.000061 5.000061,8.000061 C5.000061,8.000061 5.000061,7.000244 5.000061,7.000244 Z"/>
</svg>