<svg xmlns="http://www.w3.org/2000/svg"
 xmlns:xlink="http://www.w3.org/1999/xlink"
 width="21px" height="21px"  viewBox="0 0 21 21">
<path fill-rule="evenodd"  fill="#666262"
 d="M13.350464,1.996582 C13.350464,1.996582 19.007324,7.6532593 19.007324,7.6532593 C19.007324,7.6532593 10.12561,16.003723 10.12561,16.003723 C10.12561,16.003723 5.0,10.878235 5.0,10.878235 C5.0,10.878235 13.350464,1.996582 13.350464,1.996582 ZM11.475464,3.996643 C11.475464,3.996643 17.007324,9.528259 17.007324,9.528259 C17.007324,9.528259 8.000671,18.003723 8.000671,18.003723 C8.000671,18.003723 2.999939,13.003235 2.999939,13.003235 C2.999939,13.003235 11.475464,3.996643 11.475464,3.996643 ZM1.6630249,12.996582 C1.6630249,12.996582 8.007324,12.996582 8.007324,12.996582 C8.007324,12.996582 8.007324,19.30957 8.007324,19.30957 C8.007324,19.30957 1.6630249,12.996582 1.6630249,12.996582 Z"/>
</svg>