<svg xmlns="http://www.w3.org/2000/svg"
 xmlns:xlink="http://www.w3.org/1999/xlink"
 width="16px" height="17px"  viewBox="0 0 16 17">
<path fill-rule="evenodd"  fill="#666262"
 d="M7.9999695,2.500183 C9.656891,2.500183 10.999939,3.8432007 10.999939,5.500244 C10.999939,5.500244 10.999939,6.500061 10.999939,6.500061 C10.999939,8.157043 9.656891,11.000122 7.9999695,11.000122 C6.3431396,11.000122 5.0,8.157043 5.0,6.500061 C5.0,6.500061 5.0,5.500244 5.0,5.500244 C5.0,3.8432007 6.3431396,2.500183 7.9999695,2.500183 ZM3.53125,11.000122 C3.53125,11.000122 12.4999695,11.000122 12.4999695,11.000122 C12.4999695,11.000122 14.531189,15.000183 14.531189,15.000183 C14.531189,15.000183 1.5312805,15.000183 1.5312805,15.000183 C1.5312805,15.000183 3.53125,11.000122 3.53125,11.000122 ZM6.999939,11.000122 C6.999939,11.000122 9.0,11.000122 9.0,11.000122 C9.0,11.000122 8.7500305,12.000122 8.7500305,12.000122 C8.7500305,12.000122 7.25,12.000122 7.25,12.000122 C7.25,12.000122 6.999939,11.000122 6.999939,11.000122 ZM7.25,13.000122 C7.25,13.000122 8.7500305,13.000122 8.7500305,13.000122 C8.7500305,13.000122 9.0,15.000183 9.0,15.000183 C9.0,15.000183 6.999939,15.000183 6.999939,15.000183 C6.999939,15.000183 7.25,13.000122 7.25,13.000122 ZM10.96875,6.000061 C10.96875,6.000061 11.0312195,5.6875 11.15625,5.1875 C11.2812805,4.687744 11.0937805,4.3125 10.875,4.000183 C10.65625,3.6875 10.65625,3.4065552 10.5312195,3.1565552 C10.388733,2.871399 10.031189,2.687683 9.6250305,2.5625 C9.21875,2.437683 9.0312805,2.093811 8.625,2.062683 C8.21875,2.0315552 7.7925415,2.3709717 7.4062195,2.156311 C7.1249695,2.000183 6.808441,1.7867432 6.3437195,1.531311 C5.718689,1.1876831 6.2499695,2.8125 5.718689,3.031311 C5.1875,3.250183 5.59375,3.250183 4.8749695,4.375244 C4.653717,4.7215576 5.0312805,6.000061 5.0312805,6.000061 C5.0312805,6.000061 10.96875,6.000061 10.96875,6.000061 ZM4.40625,6.000061 C4.40625,6.000061 11.6249695,6.000061 11.6249695,6.000061 C11.6249695,6.000061 11.500061,7.500244 11.500061,7.500244 C11.500061,7.500244 4.53125,7.500244 4.53125,7.500244 C4.53125,7.500244 4.40625,6.000061 4.40625,6.000061 Z"/>
</svg>